<svg xmlns="http://www.w3.org/2000/svg" width="22.281" height="22.281" viewBox="0 0 22.281 22.281"><defs><style>.a{fill:#fff;}</style></defs><path class="a" d="M11.5-19.766A11.141,11.141,0,0,0,.359-8.625,11.141,11.141,0,0,0,11.5,2.516,11.141,11.141,0,0,0,22.641-8.625,11.141,11.141,0,0,0,11.5-19.766Zm0,2.156a8.98,8.98,0,0,1,8.984,8.984A8.98,8.98,0,0,1,11.5.359,8.98,8.98,0,0,1,2.516-8.625,8.98,8.98,0,0,1,11.5-17.609Zm6.3,5.852-1.012-1.021a.539.539,0,0,0-.762,0l-6.35,6.3L6.988-9.19a.539.539,0,0,0-.762,0L5.2-8.181a.539.539,0,0,0,0,.762L9.28-3.307a.539.539,0,0,0,.762,0L17.8-11A.539.539,0,0,0,17.8-11.758Z" transform="translate(-0.359 19.766)"/></svg>